# xmcd
#
# Track frame offsets:
#	150
#	13167
#	23857
#	35800
#	47700
#	59525
#	92992
#	107737
#	122585
#	153460
#	167340
#	180047
#	193482
#	207155
#
# Disc length: 2965
#
# Revision: 2
# Processed by: cddbd v1.5.1PL0 Copyright (c) Steve Scherf et al.
# Submitted via: EasyCDDAExtractor 7.1.0.1
# Normalized: r1:DSETVAR1
#
DISCID=bc0b930e
DTITLE=Various Artist - I'm in the Mood for Blues disc two
DYEAR=1993
DGENRE=Blues
TTITLE0=Muddy Waters - Manish Boy
TTITLE1=Howlin' Wolf - Who's Been Talkin'
TTITLE2=Little Milton - We're Gonna Make It
TTITLE3=Big Bill Broonzy and Washboard Sam - Never, Never
TTITLE4=Little Walter - It's Too Late Brother
TTITLE5=Buddy Guy - Stone Crazy
TTITLE6=Sonny Boy Williamson - I Can't Be Alone
TTITLE7=Elmore James - Whose Muddy Shoes
TTITLE8=John Lee Hooker - Let's Go Out Tonight
TTITLE9=T.S. McPhee - Ain't Gonna Cry No More
TTITLE10=Cyril Davis and The All Stars - Someday Baby
TTITLE11=Koko Taylor - Wang Dang Doodle
TTITLE12=Muddy Waters - I'm Ready
TTITLE13=Howlin' Wolf - Goin' Down Slow
EXTD=
EXTT0=
EXTT1=
EXTT2=
EXTT3=
EXTT4=
EXTT5=
EXTT6=
EXTT7=
EXTT8=
EXTT9=
EXTT10=
EXTT11=
EXTT12=
EXTT13=
PLAYORDER=
